<?xml version="1.0" standalone="no"?>
<!DOCTYPE svg PUBLIC "-//W3C//DTD SVG 20010904//EN"
 "http://www.w3.org/TR/2001/REC-SVG-20010904/DTD/svg10.dtd">
<svg version="1.0" xmlns="http://www.w3.org/2000/svg"
 width="512.000000pt" height="512.000000pt" viewBox="0 0 512.000000 512.000000"
 preserveAspectRatio="xMidYMid meet">
<metadata>
Created by potrace 1.14, written by Peter Selinger 2001-2017
</metadata>
<g transform="translate(0.000000,512.000000) scale(0.100000,-0.100000)"
fill="#000000" stroke="none">
<path d="M3417 4454 c-1 -2 -39 -6 -83 -8 -75 -5 -159 -17 -184 -26 -3 -1 -15
-1 -27 0 -13 1 -23 -4 -23 -12 0 -10 -3 -9 -10 2 -8 13 -10 12 -10 -4 0 -16
-3 -17 -12 -8 -9 9 -16 8 -30 -5 -10 -9 -18 -12 -18 -8 0 4 -9 0 -20 -10 -11
-10 -20 -15 -20 -11 0 3 -15 -1 -32 -11 -18 -9 -39 -16 -47 -14 -7 1 -11 -2
-8 -6 3 -5 -22 -20 -56 -33 -53 -22 -136 -80 -113 -80 5 0 1 -9 -9 -20 -17
-19 -17 -20 1 -21 11 0 13 -3 7 -6 -22 -8 -14 -30 16 -45 l29 -14 -26 -40
c-44 -66 -61 -98 -66 -130 -2 -16 -5 -30 -6 -31 -2 -2 -3 -6 -4 -10 -2 -12
-48 -76 -73 -101 -13 -13 -21 -28 -18 -33 4 -5 1 -9 -6 -9 -7 0 -10 -3 -6 -6
3 -3 2 -17 -3 -30 -7 -19 -4 -29 16 -53 25 -30 29 -65 9 -87 -5 -6 -22 -27
-37 -46 -38 -48 -78 -90 -78 -82 0 4 -8 -4 -18 -17 -21 -28 -53 -94 -51 -106
1 -4 0 -10 -1 -13 -5 -11 -7 -226 -1 -235 3 -5 6 -23 7 -40 1 -16 5 -41 9 -55
3 -14 7 -35 9 -47 5 -36 48 -146 69 -177 23 -33 67 -54 133 -62 26 -3 51 -7
55 -10 4 -2 10 0 14 5 3 6 15 7 28 2 14 -6 30 -5 41 1 23 13 66 2 66 -17 0 -8
4 -15 8 -15 5 0 9 -6 9 -12 0 -7 2 -17 3 -23 5 -20 0 -35 -13 -35 -25 0 -68
-67 -83 -130 -4 -19 -9 -42 -11 -50 -2 -8 -5 -28 -7 -45 -7 -56 -19 -90 -48
-136 -15 -25 -28 -50 -28 -54 0 -4 -15 -31 -34 -59 -49 -75 -96 -163 -89 -170
4 -3 0 -6 -7 -6 -7 0 -10 -3 -7 -6 3 -4 2 -14 -3 -24 -5 -9 -12 -31 -15 -49
-3 -17 -8 -46 -11 -63 -3 -18 -7 -78 -8 -134 -2 -90 3 -127 38 -319 2 -11 9
-38 14 -60 24 -88 24 -108 0 -160 -12 -27 -27 -53 -31 -56 -5 -3 -8 -9 -8 -13
3 -15 -12 -56 -20 -56 -5 0 -9 -6 -9 -13 0 -8 -6 -27 -14 -43 -33 -68 -79
-180 -79 -191 0 -7 -4 -13 -9 -13 -4 0 -8 -5 -8 -10 0 -10 -20 -58 -68 -160
-14 -30 -26 -57 -27 -60 -4 -14 -86 -195 -113 -250 -9 -19 -21 -38 -27 -42 -5
-4 -7 -8 -2 -8 4 0 0 -11 -9 -25 -9 -14 -12 -25 -8 -25 5 0 0 -7 -10 -15 -11
-8 -16 -15 -12 -15 4 0 -9 -29 -29 -63 -19 -35 -35 -67 -35 -70 0 -4 583 -7
1295 -7 830 0 1295 3 1295 10 0 5 12 35 27 67 15 32 28 60 28 63 1 3 4 12 8
20 13 34 26 88 32 130 9 67 14 99 25 155 19 97 21 121 26 230 6 135 6 105 0
265 -3 74 -8 144 -10 155 -3 11 -8 63 -11 115 -3 52 -9 104 -12 114 -3 11 -7
36 -9 55 -2 20 -5 54 -8 76 -3 22 -8 69 -12 105 -3 36 -9 67 -12 70 -4 3 -7
21 -8 40 -1 69 -22 188 -35 195 -4 3 -6 12 -3 19 3 7 -5 39 -18 72 -30 80 -30
77 8 118 19 20 34 43 34 51 0 8 4 15 8 15 5 0 9 6 10 13 1 6 9 48 19 92 19 83
23 167 8 201 -4 10 -10 28 -12 39 -3 19 -15 50 -35 88 -5 10 -6 22 -3 27 4 6
1 10 -6 10 -7 0 -9 3 -6 7 4 3 3 11 -2 17 -4 6 -16 35 -25 64 -10 28 -21 52
-25 52 -4 0 -8 6 -8 13 -1 22 -8 41 -20 55 -7 7 -13 22 -13 33 0 10 -4 19 -10
19 -5 0 -10 7 -10 15 0 8 -4 15 -10 15 -5 0 -10 6 -10 13 0 7 -15 29 -32 49
-48 53 -68 78 -63 78 2 0 -7 11 -21 25 -14 14 -29 25 -34 25 -6 0 -10 4 -10 9
0 12 -94 48 -141 54 -19 3 -34 6 -34 7 0 1 -16 4 -35 7 -19 2 -36 9 -38 14 -2
5 -12 9 -22 9 -10 0 -21 4 -25 9 -3 5 -19 12 -36 16 -17 4 -33 13 -36 21 -6
17 15 46 28 38 5 -3 9 0 9 7 0 7 3 9 7 6 5 -5 103 178 109 203 0 3 4 16 7 30
4 14 9 50 11 80 3 30 7 66 10 79 14 63 1 215 -22 255 -4 8 -11 52 -14 94 -1 6
-5 12 -10 12 -4 0 -8 7 -8 16 0 10 -6 14 -15 10 -12 -4 -13 -2 -3 14 10 16 9
22 -6 33 -12 9 -16 19 -11 27 6 10 4 12 -8 7 -12 -5 -16 0 -14 21 2 23 -2 27
-20 24 -16 -2 -21 1 -18 10 3 7 -8 28 -25 46 -16 18 -30 30 -30 26 0 -4 -8 3
-19 14 -10 12 -21 22 -24 22 -4 0 -30 15 -59 33 -53 34 -118 61 -118 50 0 -3
-8 1 -17 8 -15 12 -16 12 -8 -1 5 -9 0 -8 -13 4 -12 11 -22 16 -22 11 0 -4 -6
-2 -13 4 -8 6 -17 8 -20 4 -4 -3 -12 -1 -20 5 -11 10 -50 16 -169 26 -20 2
-39 2 -41 0z m-637 -319 c0 -2 -9 -3 -19 -2 -11 0 -18 5 -15 9 4 6 34 0 34 -7z"/>
</g>
</svg>
