<svg version="1.1" viewBox="0.0 0.0 298.0734908136483 292.37270341207346" fill="none" stroke="none" stroke-linecap="square" stroke-miterlimit="10" xmlns:xlink="http://www.w3.org/1999/xlink" xmlns="http://www.w3.org/2000/svg"><clipPath id="p.0"><path d="m0 0l298.0735 0l0 292.3727l-298.0735 0l0 -292.3727z" clip-rule="nonzero"/></clipPath><g clip-path="url(#p.0)"><path fill="#000000" fill-opacity="0.0" d="m0 0l298.0735 0l0 292.3727l-298.0735 0z" fill-rule="evenodd"/><path fill="#c9daf8" d="m99.959305 0l55.47078 0l0 29.102362l-55.47078 0z" fill-rule="evenodd"/><path stroke="#000000" stroke-width="1.0" stroke-linejoin="round" stroke-linecap="butt" d="m99.959305 0l55.47078 0l0 29.102362l-55.47078 0z" fill-rule="evenodd"/><path fill="#000000" d="m118.10023 17.93993l1.640625 -0.21875q0.28125 1.40625 0.953125 2.015625q0.6875 0.609375 1.65625 0.609375q1.15625 0 1.953125 -0.796875q0.796875 -0.796875 0.796875 -1.984375q0 -1.125 -0.734375 -1.859375q-0.734375 -0.734375 -1.875 -0.734375q-0.46875 0 -1.15625 0.171875l0.1875 -1.4375q0.15625 0.015625 0.265625 0.015625q1.046875 0 1.875 -0.546875q0.84375 -0.546875 0.84375 -1.671875q0 -0.90625 -0.609375 -1.5q-0.609375 -0.59375 -1.578125 -0.59375q-0.953125 0 -1.59375 0.609375q-0.640625 0.59375 -0.8125 1.796875l-1.640625 -0.296875q0.296875 -1.640625 1.359375 -2.546875q1.0625 -0.90625 2.65625 -0.90625q1.09375 0 2.0 0.46875q0.921875 0.46875 1.40625 1.28125q0.5 0.8125 0.5 1.71875q0 0.859375 -0.46875 1.578125q-0.46875 0.703125 -1.375 1.125q1.1875 0.28125 1.84375 1.140625q0.65625 0.859375 0.65625 2.15625q0 1.734375 -1.28125 2.953125q-1.265625 1.21875 -3.21875 1.21875q-1.765625 0 -2.921875 -1.046875q-1.15625 -1.046875 -1.328125 -2.71875zm10.375725 0l1.640625 -0.21875q0.28125 1.40625 0.953125 2.015625q0.6875 0.609375 1.6562347 0.609375q1.15625 0 1.953125 -0.796875q0.796875 -0.796875 0.796875 -1.984375q0 -1.125 -0.734375 -1.859375q-0.734375 -0.734375 -1.875 -0.734375q-0.46875 0 -1.1562347 0.171875l0.1875 -1.4375q0.15623474 0.015625 0.26560974 0.015625q1.046875 0 1.875 -0.546875q0.84375 -0.546875 0.84375 -1.671875q0 -0.90625 -0.609375 -1.5q-0.609375 -0.59375 -1.578125 -0.59375q-0.95310974 0 -1.5937347 0.609375q-0.640625 0.59375 -0.8125 1.796875l-1.640625 -0.296875q0.296875 -1.640625 1.359375 -2.546875q1.0625 -0.90625 2.6562347 -0.90625q1.09375 0 2.0 0.46875q0.921875 0.46875 1.40625 1.28125q0.5 0.8125 0.5 1.71875q0 0.859375 -0.46875 1.578125q-0.46875 0.703125 -1.375 1.125q1.1875 0.28125 1.84375 1.140625q0.65625 0.859375 0.65625 2.15625q0 1.734375 -1.28125 2.953125q-1.265625 1.21875 -3.21875 1.21875q-1.7656097 0 -2.9218597 -1.046875q-1.15625 -1.046875 -1.328125 -2.71875z" fill-rule="nonzero"/><path fill="#999999" d="m139.03426 0l16.37468 0l0 29.102362l-16.37468 0z" fill-rule="evenodd"/><path stroke="#000000" stroke-width="1.0" stroke-linejoin="round" stroke-linecap="butt" d="m139.03426 0l16.37468 0l0 29.102362l-16.37468 0z" fill-rule="evenodd"/><path fill="#999999" d="m99.959305 0l16.374672 0l0 29.102362l-16.374672 0z" fill-rule="evenodd"/><path stroke="#000000" stroke-width="1.0" stroke-linejoin="round" stroke-linecap="butt" d="m99.959305 0l16.374672 0l0 29.102362l-16.374672 0z" fill-rule="evenodd"/><path fill="#000000" fill-opacity="0.0" d="m108.14664 29.102362c0 8.595846 -10.181099 12.892481 -20.362206 17.19169c-10.181099 4.2992134 -20.362198 8.601006 -20.362198 17.202011" fill-rule="evenodd"/><path stroke="#000000" stroke-width="1.0" stroke-linejoin="round" stroke-linecap="butt" d="m108.146645 29.102362c0 8.595846 -10.181107 12.892477 -20.362206 17.191694c-5.0905533 2.1496048 -10.181107 4.299858 -13.999023 6.987831c-0.9544754 0.6719971 -1.8294144 1.3775978 -2.604927 2.1251984c-0.38775635 0.37380219 -0.7506561 0.7580986 -1.0862122 1.1539497c-0.16778564 0.19792557 -0.32872772 0.39873505 -0.4825287 0.60256577c-0.07689667 0.10191727 -0.15200806 0.20458603 -0.22529602 0.30802536l-0.19883728 0.29003143" fill-rule="evenodd"/><path fill="#000000" stroke="#000000" stroke-width="1.0" stroke-linecap="butt" d="m67.60899 57.275665l0.24337006 4.823208l2.9138641 -3.8512268z" fill-rule="evenodd"/><path fill="#c9daf8" d="m83.267715 119.03937l45.88977 0l0 29.102371l-45.88977 0z" fill-rule="evenodd"/><path stroke="#000000" stroke-width="1.0" stroke-linejoin="round" stroke-linecap="butt" d="m83.267715 119.03937l45.88977 0l0 29.102371l-45.88977 0z" fill-rule="evenodd"/><path fill="#000000" d="m103.48272 140.51054l-1.640625 0l0 -10.453125q-0.59375 0.5625 -1.5625 1.140625q-0.953125 0.5625 -1.71875 0.84375l0 -1.59375q1.375 -0.640625 2.40625 -1.5625q1.03125 -0.9218674 1.453125 -1.7812424l1.0625 0l0 13.406242zm8.990295 0l-1.640625 0l0 -10.453125q-0.59375 0.5625 -1.5625 1.140625q-0.953125 0.5625 -1.71875 0.84375l0 -1.59375q1.375 -0.640625 2.40625 -1.5625q1.03125 -0.9218674 1.453125 -1.7812424l1.0625 0l0 13.406242z" fill-rule="nonzero"/><path fill="#c9daf8" d="m42.68504 63.485565l49.44882 0l0 29.102364l-49.44882 0z" fill-rule="evenodd"/><path stroke="#000000" stroke-width="1.0" stroke-linejoin="round" stroke-linecap="butt" d="m42.68504 63.485565l49.44882 0l0 29.102364l-49.44882 0z" fill-rule="evenodd"/><path fill="#000000" d="m63.237213 81.86299l1.578125 -0.140625q0.203125 1.109375 0.765625 1.609375q0.5625 0.5 1.453125 0.5q0.75 0 1.3125 -0.34375q0.578125 -0.34375 0.9375 -0.921875q0.375 -0.578125 0.609375 -1.5625q0.25 -0.984375 0.25 -2.0q0 -0.109375 0 -0.328125q-0.5 0.78125 -1.359375 1.265625q-0.84375 0.484375 -1.828125 0.484375q-1.671875 0 -2.8125 -1.203125q-1.140625 -1.203125 -1.140625 -3.171875q0 -2.03125 1.1875 -3.265625q1.203125 -1.234375 3.0 -1.234375q1.3125 0 2.390625 0.703125q1.078125 0.703125 1.640625 2.0q0.5625 1.296875 0.5625 3.75q0 2.5625 -0.5625 4.078125q-0.5625 1.515625 -1.65625 2.3125q-1.09375 0.796875 -2.578125 0.796875q-1.5625 0 -2.5625 -0.875q-0.984375 -0.875 -1.1875 -2.453125zm6.71875 -5.890625q0 -1.40625 -0.75 -2.234375q-0.75 -0.828125 -1.8125 -0.828125q-1.09375 0 -1.90625 0.890625q-0.8125 0.890625 -0.8125 2.3125q0 1.28125 0.765625 2.078125q0.78125 0.796875 1.90625 0.796875q1.140625 0 1.875 -0.796875q0.734375 -0.796875 0.734375 -2.21875z" fill-rule="nonzero"/><path fill="#000000" fill-opacity="0.0" d="m86.03937 92.58793c0 6.6128464 5.047249 9.91861 10.09449 13.2257c5.047241 3.3070831 10.09449 6.615494 10.09449 13.230988" fill-rule="evenodd"/><path stroke="#000000" stroke-width="1.0" stroke-linejoin="round" stroke-linecap="butt" d="m86.03937 92.58793c0 6.6128464 5.047249 9.91861 10.09449 13.2257c2.5236206 1.6535416 5.047241 3.3074112 6.9399643 5.3748474c0.47317505 0.51685333 0.9069214 1.059555 1.2913742 1.6345596c0.048065186 0.071876526 0.09535217 0.14425659 0.1418457 0.21715546l0.13555908 0.21777344" fill-rule="evenodd"/><path fill="#000000" stroke="#000000" stroke-width="1.0" stroke-linecap="butt" d="m103.0496 113.694496l2.7923813 3.9402008l0.39362335 -4.8132706z" fill-rule="evenodd"/><path fill="#999999" d="m83.267715 119.03937l12.18898 0l0 29.102371l-12.18898 0z" fill-rule="evenodd"/><path stroke="#000000" stroke-width="1.0" stroke-linejoin="round" stroke-linecap="butt" d="m83.267715 119.03937l12.18898 0l0 29.102371l-12.18898 0z" fill-rule="evenodd"/><path fill="#999999" d="m123.19852 119.03937l13.543304 0l0 29.102371l-13.543304 0z" fill-rule="evenodd"/><path stroke="#000000" stroke-width="1.0" stroke-linejoin="round" stroke-linecap="butt" d="m123.19852 119.03937l13.543304 0l0 29.102371l-13.543304 0z" fill-rule="evenodd"/><path fill="#999999" d="m42.68504 63.485565l12.188976 0l0 29.102364l-12.188976 0z" fill-rule="evenodd"/><path stroke="#000000" stroke-width="1.0" stroke-linejoin="round" stroke-linecap="butt" d="m42.68504 63.485565l12.188976 0l0 29.102364l-12.188976 0z" fill-rule="evenodd"/><path fill="#999999" d="m79.944885 63.485565l12.188972 0l0 29.102364l-12.188972 0z" fill-rule="evenodd"/><path stroke="#000000" stroke-width="1.0" stroke-linejoin="round" stroke-linecap="butt" d="m79.944885 63.485565l12.188972 0l0 29.102364l-12.188972 0z" fill-rule="evenodd"/><path fill="#000000" fill-opacity="0.0" d="m147.2216 29.102362c0 8.595846 18.188965 12.892481 36.377945 17.19169c18.18898 4.2992134 36.37796 8.601006 36.37796 17.202011" fill-rule="evenodd"/><path stroke="#000000" stroke-width="1.0" stroke-linejoin="round" stroke-linecap="butt" d="m147.2216 29.102362c0 8.595846 18.18898 12.892477 36.377945 17.191694c9.094498 2.1496048 18.18898 4.299858 25.009842 6.987831c3.410431 1.3439903 6.252472 2.8224068 8.241882 4.502392c0.12434387 0.10499954 0.24534607 0.21078491 0.36296082 0.31737518l0.04776001 0.044086456" fill-rule="evenodd"/><path fill="#000000" stroke="#000000" stroke-width="1.0" stroke-linecap="butt" d="m215.78911 58.89329l3.526764 3.2991638l-0.58099365 -4.7942657z" fill-rule="evenodd"/><path fill="#c9daf8" d="m239.15617 119.031494l49.070847 0l0 29.102371l-49.070847 0z" fill-rule="evenodd"/><path stroke="#000000" stroke-width="1.0" stroke-linejoin="round" stroke-linecap="butt" d="m239.15617 119.031494l49.070847 0l0 29.102371l-49.070847 0z" fill-rule="evenodd"/><path fill="#000000" d="m265.18878 130.42455l-1.625 0.125q-0.21875 -0.96875 -0.625 -1.40625q-0.65625 -0.703125 -1.640625 -0.703125q-0.78125 0 -1.375 0.4375q-0.765625 0.5625 -1.21875 1.65625q-0.453125 1.078125 -0.46875 3.078125q0.59375 -0.890625 1.453125 -1.328125q0.859375 -0.4375 1.796875 -0.4375q1.640625 0 2.78125 1.203125q1.15625 1.203125 1.15625 3.109375q0 1.265625 -0.546875 2.34375q-0.53125 1.078125 -1.484375 1.65625q-0.9375 0.578125 -2.140625 0.578125q-2.0625 0 -3.359375 -1.5q-1.28125 -1.515625 -1.28125 -4.984375q0 -3.875 1.421875 -5.625q1.25 -1.5312424 3.375 -1.5312424q1.5625 0 2.5625 0.890625q1.015625 0.8749924 1.21875 2.4374924zm-6.6875 5.75q0 0.84375 0.359375 1.625q0.359375 0.765625 1.0 1.171875q0.640625 0.40625 1.359375 0.40625q1.03125 0 1.78125 -0.828125q0.75 -0.84375 0.75 -2.28125q0 -1.390625 -0.734375 -2.1875q-0.734375 -0.796875 -1.859375 -0.796875q-1.109375 0 -1.890625 0.796875q-0.765625 0.796875 -0.765625 2.09375zm8.672607 -7.28125l0 -1.5781174l8.640625 0l0 1.2812424q-1.28125 1.359375 -2.53125 3.609375q-1.25 2.25 -1.9375 4.625q-0.484375 1.671875 -0.625 3.671875l-1.6875 0q0.03125 -1.578125 0.625 -3.8125q0.59375 -2.234375 1.6875 -4.296875q1.109375 -2.078125 2.359375 -3.5l-6.53125 0z" fill-rule="nonzero"/><path fill="#c9daf8" d="m195.479 63.485565l48.97638 0l0 29.102364l-48.97638 0z" fill-rule="evenodd"/><path stroke="#000000" stroke-width="1.0" stroke-linejoin="round" stroke-linecap="butt" d="m195.479 63.485565l48.97638 0l0 29.102364l-48.97638 0z" fill-rule="evenodd"/><path fill="#000000" d="m215.62273 84.95674l0 -3.203125l-5.796875 0l0 -1.5l6.09375 -8.65625l1.34375 0l0 8.65625l1.796875 0l0 1.5l-1.796875 0l0 3.203125l-1.640625 0zm0 -4.703125l0 -6.015625l-4.1875 6.015625l4.1875 0zm5.125717 1.171875l1.640625 -0.21875q0.28125 1.40625 0.953125 2.015625q0.6875 0.609375 1.65625 0.609375q1.15625 0 1.953125 -0.796875q0.796875 -0.796875 0.796875 -1.984375q0 -1.125 -0.734375 -1.859375q-0.734375 -0.734375 -1.875 -0.734375q-0.46875 0 -1.15625 0.171875l0.1875 -1.4375q0.15625 0.015625 0.265625 0.015625q1.046875 0 1.875 -0.546875q0.84375 -0.546875 0.84375 -1.671875q0 -0.90625 -0.609375 -1.5q-0.609375 -0.59375 -1.578125 -0.59375q-0.953125 0 -1.59375 0.609375q-0.640625 0.59375 -0.8125 1.796875l-1.640625 -0.296875q0.296875 -1.640625 1.359375 -2.546875q1.0625 -0.90625 2.65625 -0.90625q1.09375 0 2.0 0.46875q0.921875 0.46875 1.40625 1.28125q0.5 0.8125 0.5 1.71875q0 0.859375 -0.46875 1.578125q-0.46875 0.703125 -1.375 1.125q1.1875 0.28125 1.84375 1.140625q0.65625 0.859375 0.65625 2.15625q0 1.734375 -1.28125 2.953125q-1.265625 1.21875 -3.21875 1.21875q-1.765625 0 -2.921875 -1.046875q-1.15625 -1.046875 -1.328125 -2.71875z" fill-rule="nonzero"/><path fill="#000000" fill-opacity="0.0" d="m239.05536 92.58793c0 6.6108627 6.157486 9.914642 12.314957 13.221733c6.157486 3.3070831 12.314957 6.6174774 12.314957 13.234955" fill-rule="evenodd"/><path stroke="#000000" stroke-width="1.0" stroke-linejoin="round" stroke-linecap="butt" d="m239.05536 92.58793c0 6.6108627 6.157486 9.914642 12.314972 13.221733c3.0787354 1.6535416 6.1574707 3.3079147 8.466522 5.3760757c0.5772705 0.5170517 1.1064148 1.0599442 1.57547 1.63517c0.117248535 0.14380646 0.23074341 0.28962708 0.3403015 0.43756866l0.061584473 0.08534241" fill-rule="evenodd"/><path fill="#000000" stroke="#000000" stroke-width="1.0" stroke-linecap="butt" d="m260.24484 113.8589l2.984558 3.7967148l0.1541748 -4.8268814z" fill-rule="evenodd"/><path fill="#999999" d="m237.36613 119.031494l12.18898 0l0 29.102371l-12.18898 0z" fill-rule="evenodd"/><path stroke="#000000" stroke-width="1.0" stroke-linejoin="round" stroke-linecap="butt" d="m237.36613 119.031494l12.18898 0l0 29.102371l-12.18898 0z" fill-rule="evenodd"/><path fill="#999999" d="m281.84378 119.031494l12.188965 0l0 29.102371l-12.188965 0z" fill-rule="evenodd"/><path stroke="#000000" stroke-width="1.0" stroke-linejoin="round" stroke-linecap="butt" d="m281.84378 119.031494l12.188965 0l0 29.102371l-12.188965 0z" fill-rule="evenodd"/><path fill="#999999" d="m195.479 63.485565l12.18898 0l0 29.102364l-12.18898 0z" fill-rule="evenodd"/><path stroke="#000000" stroke-width="1.0" stroke-linejoin="round" stroke-linecap="butt" d="m195.479 63.485565l12.18898 0l0 29.102364l-12.18898 0z" fill-rule="evenodd"/><path fill="#999999" d="m232.96088 63.485565l12.188965 0l0 29.102364l-12.188965 0z" fill-rule="evenodd"/><path stroke="#000000" stroke-width="1.0" stroke-linejoin="round" stroke-linecap="butt" d="m232.96088 63.485565l12.188965 0l0 29.102364l-12.188965 0z" fill-rule="evenodd"/><path fill="#c9daf8" d="m136.74289 190.6378l44.53543 0l0 29.102356l-44.53543 0z" fill-rule="evenodd"/><path stroke="#000000" stroke-width="1.0" stroke-linejoin="round" stroke-linecap="butt" d="m136.74289 190.6378l44.53543 0l0 29.102356l-44.53543 0z" fill-rule="evenodd"/><path fill="#000000" d="m155.58801 212.10898l-1.640625 0l0 -10.453125q-0.59375 0.5625 -1.5625 1.140625q-0.953125 0.5625 -1.71875 0.84375l0 -1.59375q1.375 -0.640625 2.40625 -1.5625q1.03125 -0.921875 1.453125 -1.78125l1.0625 0l0 13.40625zm4.203842 -3.5l1.71875 -0.140625q0.1875 1.25 0.875 1.890625q0.703125 0.625 1.6875 0.625q1.1875 0 2.0 -0.890625q0.828125 -0.890625 0.828125 -2.359375q0 -1.40625 -0.796875 -2.21875q-0.78125 -0.8125 -2.0625 -0.8125q-0.78125 0 -1.421875 0.359375q-0.640625 0.359375 -1.0 0.9375l-1.546875 -0.203125l1.296875 -6.859375l6.640625 0l0 1.5625l-5.328125 0l-0.71875 3.59375q1.203125 -0.84375 2.515625 -0.84375q1.75 0 2.953125 1.21875q1.203125 1.203125 1.203125 3.109375q0 1.8125 -1.046875 3.140625q-1.296875 1.625 -3.515625 1.625q-1.8125 0 -2.96875 -1.015625q-1.15625 -1.03125 -1.3125 -2.71875z" fill-rule="nonzero"/><path fill="#999999" d="m136.7617 190.6378l12.18898 0l0 29.102356l-12.18898 0z" fill-rule="evenodd"/><path stroke="#000000" stroke-width="1.0" stroke-linejoin="round" stroke-linecap="butt" d="m136.7617 190.6378l12.18898 0l0 29.102356l-12.18898 0z" fill-rule="evenodd"/><path fill="#999999" d="m172.66273 190.6378l12.188965 0l0 29.102356l-12.188965 0z" fill-rule="evenodd"/><path stroke="#000000" stroke-width="1.0" stroke-linejoin="round" stroke-linecap="butt" d="m172.66273 190.6378l12.188965 0l0 29.102356l-12.188965 0z" fill-rule="evenodd"/><path fill="#c9daf8" d="m187.3729 259.79004l48.97638 0l0 29.102356l-48.97638 0z" fill-rule="evenodd"/><path stroke="#000000" stroke-width="1.0" stroke-linejoin="round" stroke-linecap="butt" d="m187.3729 259.79004l48.97638 0l0 29.102356l-48.97638 0z" fill-rule="evenodd"/><path fill="#000000" d="m213.46764 279.68307l0 1.578125l-8.828125 0q-0.015625 -0.59375 0.1875 -1.140625q0.34375 -0.90625 1.078125 -1.78125q0.75 -0.875 2.15625 -2.015625q2.171875 -1.78125 2.9375 -2.828125q0.765625 -1.046875 0.765625 -1.96875q0 -0.984375 -0.703125 -1.640625q-0.6875 -0.671875 -1.8125 -0.671875q-1.1875 0 -1.90625 0.71875q-0.703125 0.703125 -0.703125 1.953125l-1.6875 -0.171875q0.171875 -1.890625 1.296875 -2.875q1.140625 -0.984375 3.03125 -0.984375q1.921875 0 3.046875 1.0625q1.125 1.0625 1.125 2.640625q0 0.796875 -0.328125 1.578125q-0.328125 0.78125 -1.09375 1.640625q-0.75 0.84375 -2.53125 2.34375q-1.46875 1.234375 -1.890625 1.6875q-0.421875 0.4375 -0.6875 0.875l6.546875 0zm7.016342 1.578125l0 -3.203125l-5.796875 0l0 -1.5l6.09375 -8.65625l1.34375 0l0 8.65625l1.796875 0l0 1.5l-1.796875 0l0 3.203125l-1.640625 0zm0 -4.703125l0 -6.015625l-4.1875 6.015625l4.1875 0z" fill-rule="nonzero"/><path fill="#000000" fill-opacity="0.0" d="m178.75722 219.74016c0 10.017548 8.275589 15.027222 16.551178 20.035095c8.275589 5.0078735 16.551178 10.013947 16.551178 20.027908" fill-rule="evenodd"/><path stroke="#000000" stroke-width="1.0" stroke-linejoin="round" stroke-linecap="butt" d="m178.75722 219.74016c0 10.017548 8.275589 15.027237 16.551178 20.03511c4.137802 2.5039368 8.275589 5.007416 11.378937 8.136658c1.5516815 1.564621 2.8447418 3.2856903 3.749878 5.2414703c0.11314392 0.24446106 0.2202301 0.4925995 0.32099915 0.7445679l0.0025634766 0.006668091" fill-rule="evenodd"/><path fill="#000000" stroke="#000000" stroke-width="1.0" stroke-linecap="butt" d="m209.13696 254.20712l2.454895 4.158844l0.79270935 -4.7638397z" fill-rule="evenodd"/><path fill="#999999" d="m187.37138 259.79004l12.18898 0l0 29.102356l-12.18898 0z" fill-rule="evenodd"/><path stroke="#000000" stroke-width="1.0" stroke-linejoin="round" stroke-linecap="butt" d="m187.37138 259.79004l12.18898 0l0 29.102356l-12.18898 0z" fill-rule="evenodd"/><path fill="#999999" d="m229.97868 259.79004l14.45668 0l0 29.102356l-14.45668 0z" fill-rule="evenodd"/><path stroke="#000000" stroke-width="1.0" stroke-linejoin="round" stroke-linecap="butt" d="m229.97868 259.79004l14.45668 0l0 29.102356l-14.45668 0z" fill-rule="evenodd"/><path fill="#000000" fill-opacity="0.0" d="m129.97017 148.14174c0 10.623947 7.259842 15.93689 14.519684 21.24791c7.259842 5.31102 14.519684 10.620132 14.519684 21.24028" fill-rule="evenodd"/><path stroke="#000000" stroke-width="1.0" stroke-linejoin="round" stroke-linecap="butt" d="m129.97017 148.14174c0 10.623947 7.259842 15.93689 14.519684 21.24791c3.6299286 2.6555023 7.259857 5.310547 9.982285 8.629211c1.3612213 1.6593323 2.495575 3.4845886 3.289627 5.5587463c0.09925842 0.25927734 0.19319153 0.5224457 0.28160095 0.7896576l0.10333252 0.3250122" fill-rule="evenodd"/><path fill="#000000" stroke="#000000" stroke-width="1.0" stroke-linecap="butt" d="m156.51213 184.92982l2.2871857 4.2533875l0.98194885 -4.7284546z" fill-rule="evenodd"/><path fill="#efefef" d="m0 119.03937l45.889763 0l0 29.102371l-45.889763 0z" fill-rule="evenodd"/><path stroke="#000000" stroke-width="1.0" stroke-linejoin="round" stroke-linecap="butt" stroke-dasharray="1.0,3.0" d="m0 119.03937l45.889763 0l0 29.102371l-45.889763 0z" fill-rule="evenodd"/><path fill="#000000" fill-opacity="0.0" d="m48.779526 92.58793c0 6.6128464 -6.4566917 9.91861 -12.9133835 13.2257c-6.4566936 3.3070831 -12.913387 6.615494 -12.913387 13.230988" fill-rule="evenodd"/><path stroke="#000000" stroke-width="1.0" stroke-linejoin="round" stroke-linecap="butt" stroke-dasharray="1.0,3.0" d="m48.779526 92.58793c0 6.6128464 -6.4566917 9.91861 -12.9133835 13.2257c-3.2283478 1.6535416 -6.4566936 3.3074112 -8.877953 5.3748474c-0.60531616 0.51685333 -1.1601887 1.059555 -1.6520061 1.6345596c-0.12295532 0.14375305 -0.24196625 0.2895279 -0.35684586 0.43740845l-0.08183861 0.10808563" fill-rule="evenodd"/><path stroke="#000000" stroke-width="1.0" stroke-linecap="butt" d="m23.334936 112.83317l0.09165764 4.8284683l3.0334682 -3.7577362z" fill-rule="evenodd"/><path fill="#efefef" d="m149.59055 119.038055l45.88977 0l0 29.102371l-45.88977 0z" fill-rule="evenodd"/><path stroke="#000000" stroke-width="1.0" stroke-linejoin="round" stroke-linecap="butt" stroke-dasharray="1.0,3.0" d="m149.59055 119.038055l45.88977 0l0 29.102371l-45.88977 0z" fill-rule="evenodd"/><path fill="#000000" fill-opacity="0.0" d="m201.57349 92.58793c0 6.612587 -7.259842 9.918083 -14.519684 13.225166c-7.259842 3.3070908 -14.519684 6.615761 -14.519684 13.231522" fill-rule="evenodd"/><path stroke="#000000" stroke-width="1.0" stroke-linejoin="round" stroke-linecap="butt" stroke-dasharray="1.0,3.0" d="m201.57349 92.58793c0 6.6125793 -7.259842 9.918076 -14.519684 13.225166c-3.6299133 1.6535416 -7.259842 3.3074875 -9.982285 5.3750076c-0.680603 0.5168762 -1.3045044 1.0596085 -1.8574829 1.6346512c-0.13827515 0.14375305 -0.27207947 0.28953552 -0.40124512 0.4374237l-0.14906311 0.1750946" fill-rule="evenodd"/><path stroke="#000000" stroke-width="1.0" stroke-linecap="butt" d="m173.11954 112.849014l-0.06654358 4.828888l3.1549225 -3.656372z" fill-rule="evenodd"/><path fill="#efefef" d="m44.464565 190.63649l45.889767 0l0 29.102356l-45.889767 0z" fill-rule="evenodd"/><path stroke="#000000" stroke-width="1.0" stroke-linejoin="round" stroke-linecap="butt" stroke-dasharray="1.0,3.0" d="m44.464565 190.63649l45.889767 0l0 29.102356l-45.889767 0z" fill-rule="evenodd"/><path fill="#000000" fill-opacity="0.0" d="m89.362206 148.14174c0 10.6237335 -5.4881897 15.936462 -10.976379 21.247482c-5.4881897 5.311035 -10.976379 10.620346 -10.976379 21.240707" fill-rule="evenodd"/><path stroke="#000000" stroke-width="1.0" stroke-linejoin="round" stroke-linecap="butt" stroke-dasharray="1.0,3.0" d="m89.362206 148.14174c0 10.623749 -5.4881897 15.936462 -10.976379 21.247498c-2.7440948 2.6555023 -5.4881897 5.3105927 -7.546257 8.629349c-1.0290375 1.659378 -1.8865662 3.4846497 -2.4868393 5.5588837c-0.075035095 0.25926208 -0.1460495 0.5224457 -0.21287537 0.7896576l-0.071876526 0.29904175" fill-rule="evenodd"/><path stroke="#000000" stroke-width="1.0" stroke-linecap="butt" d="m66.42622 184.48488l1.1436768 4.691971l2.1398315 -4.3293915z" fill-rule="evenodd"/><path fill="#efefef" d="m99.95801 259.78873l45.889755 0l0 29.102356l-45.889755 0z" fill-rule="evenodd"/><path stroke="#000000" stroke-width="1.0" stroke-linejoin="round" stroke-linecap="butt" stroke-dasharray="1.0,3.0" d="m99.95801 259.78873l45.889755 0l0 29.102356l-45.889755 0z" fill-rule="evenodd"/><path fill="#000000" fill-opacity="0.0" d="m142.8562 219.74016c0 10.012146 -4.9921265 15.016403 -9.984253 20.024277c-4.992134 5.007889 -9.984253 10.019363 -9.984253 20.038727" fill-rule="evenodd"/><path stroke="#000000" stroke-width="1.0" stroke-linejoin="round" stroke-linecap="butt" stroke-dasharray="1.0,3.0" d="m142.8562 219.74016c0 10.012146 -4.9921265 15.016403 -9.984253 20.024277c-2.4960632 2.5039368 -4.9921265 5.008774 -6.864174 8.140045c-0.9360275 1.5656433 -1.7160492 3.2879028 -2.262062 5.2449493c-0.034118652 0.122299194 -0.067337036 0.24554443 -0.099609375 0.3697052l-0.08076477 0.32240295" fill-rule="evenodd"/><path stroke="#000000" stroke-width="1.0" stroke-linecap="butt" d="m121.92417 253.655l1.1286316 4.695587l2.1537018 -4.3224945z" fill-rule="evenodd"/></g></svg>