<svg version="1.1" viewBox="0.0 0.0 298.51443569553805 179.29658792650918" fill="none" stroke="none" stroke-linecap="square" stroke-miterlimit="10" xmlns:xlink="http://www.w3.org/1999/xlink" xmlns="http://www.w3.org/2000/svg"><clipPath id="p.0"><path d="m0 0l298.51443 0l0 179.29659l-298.51443 0l0 -179.29659z" clip-rule="nonzero"/></clipPath><g clip-path="url(#p.0)"><path fill="#000000" fill-opacity="0.0" d="m0 0l298.51443 0l0 179.29659l-298.51443 0z" fill-rule="evenodd"/><path fill="#c9daf8" d="m100.1944 0l44.125977 0l0 29.102362l-44.125977 0z" fill-rule="evenodd"/><path stroke="#000000" stroke-width="1.0" stroke-linejoin="round" stroke-linecap="butt" d="m100.1944 0l44.125977 0l0 29.102362l-44.125977 0z" fill-rule="evenodd"/><path fill="#000000" d="m119.527504 21.47118l-1.640625 0l0 -10.453125q-0.59375 0.5625 -1.5625 1.140625q-0.953125 0.5625 -1.71875 0.84375l0 -1.59375q1.375 -0.640625 2.40625 -1.5625q1.03125 -0.921875 1.453125 -1.78125l1.0625 0l0 13.40625zm8.990303 0l-1.6406326 0l0 -10.453125q-0.59375 0.5625 -1.5625 1.140625q-0.953125 0.5625 -1.71875 0.84375l0 -1.59375q1.375 -0.640625 2.40625 -1.5625q1.03125 -0.921875 1.453125 -1.78125l1.0625076 0l0 13.40625z" fill-rule="nonzero"/><path fill="#999999" d="m131.8524 0l12.18898 0l0 29.102362l-12.18898 0z" fill-rule="evenodd"/><path stroke="#000000" stroke-width="1.0" stroke-linejoin="round" stroke-linecap="butt" d="m131.8524 0l12.18898 0l0 29.102362l-12.18898 0z" fill-rule="evenodd"/><path fill="#999999" d="m100.1944 0l12.188972 0l0 29.102362l-12.188972 0z" fill-rule="evenodd"/><path stroke="#000000" stroke-width="1.0" stroke-linejoin="round" stroke-linecap="butt" d="m100.1944 0l12.188972 0l0 29.102362l-12.188972 0z" fill-rule="evenodd"/><path fill="#000000" fill-opacity="0.0" d="m106.28888 29.102362c0 9.518354 -11.086609 14.276861 -22.173225 19.036707c-11.0866165 4.759842 -22.17323 9.521015 -22.17323 19.04203" fill-rule="evenodd"/><path stroke="#000000" stroke-width="1.0" stroke-linejoin="round" stroke-linecap="butt" d="m106.28888 29.102362c0 9.518354 -11.0866165 14.276861 -22.173225 19.036703c-5.5433044 2.3799248 -11.0866165 4.7601776 -15.244095 7.7355766c-2.0787354 1.4877014 -3.81102 3.1241913 -5.0236206 4.9838142c-0.07578659 0.11623001 -0.14954376 0.23332596 -0.22123337 0.35131454l-0.106788635 0.18241882" fill-rule="evenodd"/><path fill="#000000" stroke="#000000" stroke-width="1.0" stroke-linecap="butt" d="m61.926292 60.957924l0.4004898 4.812706l2.7867584 -3.9441757z" fill-rule="evenodd"/><path fill="#c9daf8" d="m0 128.2336l41.29134 0l0 29.102356l-41.29134 0z" fill-rule="evenodd"/><path stroke="#000000" stroke-width="1.0" stroke-linejoin="round" stroke-linecap="butt" d="m0 128.2336l41.29134 0l0 29.102356l-41.29134 0z" fill-rule="evenodd"/><path fill="#000000" d="m24.080711 149.70477l0 -3.203125l-5.796875 0l0 -1.5l6.09375 -8.65625l1.34375 0l0 8.65625l1.796875 0l0 1.5l-1.796875 0l0 3.203125l-1.640625 0zm0 -4.703125l0 -6.015625l-4.1875 6.015625l4.1875 0z" fill-rule="nonzero"/><path fill="#c9daf8" d="m90.708664 128.2336l47.244095 0l0 29.102356l-47.244095 0z" fill-rule="evenodd"/><path stroke="#000000" stroke-width="1.0" stroke-linejoin="round" stroke-linecap="butt" d="m90.708664 128.2336l47.244095 0l0 29.102356l-47.244095 0z" fill-rule="evenodd"/><path fill="#000000" d="m104.736244 146.20477l1.71875 -0.140625q0.1875 1.25 0.875 1.890625q0.703125 0.625 1.6875 0.625q1.1875 0 2.0 -0.890625q0.828125 -0.890625 0.828125 -2.359375q0 -1.40625 -0.796875 -2.21875q-0.78125 -0.8125 -2.0625 -0.8125q-0.78125 0 -1.421875 0.359375q-0.640625 0.359375 -1.0 0.9375l-1.546875 -0.203125l1.296875 -6.859375l6.640625 0l0 1.5625l-5.328125 0l-0.71875 3.59375q1.203125 -0.84375 2.515625 -0.84375q1.75 0 2.953125 1.21875q1.203125 1.203125 1.203125 3.109375q0 1.8125 -1.046875 3.140625q-1.296875 1.625 -3.515625 1.625q-1.8125 0 -2.96875 -1.015625q-1.15625 -1.03125 -1.3125 -2.71875zm18.985092 1.921875l0 1.578125l-8.828125 0q-0.015625 -0.59375 0.1875 -1.140625q0.34375 -0.90625 1.078125 -1.78125q0.75 -0.875 2.15625 -2.015625q2.171875 -1.78125 2.9375 -2.828125q0.765625 -1.046875 0.765625 -1.96875q0 -0.984375 -0.703125 -1.640625q-0.6875 -0.671875 -1.8125 -0.671875q-1.1875 0 -1.90625 0.71875q-0.703125 0.703125 -0.703125 1.953125l-1.6875 -0.171875q0.171875 -1.890625 1.296875 -2.875q1.140625 -0.984375 3.03125 -0.984375q1.921875 0 3.046875 1.0625q1.125 1.0625 1.125 2.640625q0 0.796875 -0.328125 1.578125q-0.328125 0.78125 -1.09375 1.640625q-0.75 0.84375 -2.53125 2.34375q-1.46875 1.234375 -1.890625 1.6875q-0.421875 0.4375 -0.6875 0.875l6.546875 0z" fill-rule="nonzero"/><path fill="#c9daf8" d="m41.29134 67.17585l41.29134 0l0 29.102364l-41.29134 0z" fill-rule="evenodd"/><path stroke="#000000" stroke-width="1.0" stroke-linejoin="round" stroke-linecap="butt" d="m41.29134 67.17585l41.29134 0l0 29.102364l-41.29134 0z" fill-rule="evenodd"/><path fill="#000000" d="m66.13977 87.06891l0 1.578125l-8.828121 0q-0.015625 -0.59375 0.1875 -1.140625q0.34375 -0.90625 1.078125 -1.78125q0.75 -0.875 2.15625 -2.015625q2.171875 -1.78125 2.9375 -2.828125q0.7656212 -1.046875 0.7656212 -1.96875q0 -0.984375 -0.7031212 -1.640625q-0.6875 -0.671875 -1.8125 -0.671875q-1.1875 0 -1.90625 0.71875q-0.703125 0.703125 -0.703125 1.953125l-1.6875 -0.171875q0.171875 -1.890625 1.296875 -2.875q1.140625 -0.984375 3.03125 -0.984375q1.921875 0 3.0468712 1.0625q1.125 1.0625 1.125 2.640625q0 0.796875 -0.328125 1.578125q-0.328125 0.78125 -1.09375 1.640625q-0.7499962 0.84375 -2.5312462 2.34375q-1.46875 1.234375 -1.890625 1.6875q-0.421875 0.4375 -0.6875 0.875l6.546871 0z" fill-rule="nonzero"/><path fill="#000000" fill-opacity="0.0" d="m47.385826 96.26509c0 7.9921265 -6.6850395 11.98819 -13.370079 15.984253c-6.6850376 3.9960632 -13.370077 7.9921265 -13.370077 15.984253" fill-rule="evenodd"/><path stroke="#000000" stroke-width="1.0" stroke-linejoin="round" stroke-linecap="butt" d="m47.385826 96.26509c0 7.9921265 -6.6850395 11.98819 -13.370079 15.984253c-3.3425179 1.9980316 -6.6850376 3.9960632 -9.191929 6.493599c-0.62672234 0.62438965 -1.2012177 1.2799911 -1.7104301 1.974617c-0.25460434 0.34732056 -0.4928894 0.70438385 -0.7132225 1.0721893c-0.11016464 0.18389893 -0.2158432 0.37049103 -0.31682968 0.5598755l-0.026966095 0.05216217" fill-rule="evenodd"/><path fill="#000000" stroke="#000000" stroke-width="1.0" stroke-linecap="butt" d="m20.450941 122.01344l0.5384464 4.7992325l2.6724129 -4.0225296z" fill-rule="evenodd"/><path fill="#000000" fill-opacity="0.0" d="m79.42257 96.27821c0 7.9887695 8.724411 11.981476 17.448822 15.977539c8.724411 3.9960632 17.448822 7.9954834 17.448822 15.990967" fill-rule="evenodd"/><path stroke="#000000" stroke-width="1.0" stroke-linejoin="round" stroke-linecap="butt" d="m79.42257 96.27821c0 7.988777 8.724411 11.981476 17.448822 15.977539c4.3622055 1.9980316 8.724411 3.9969025 11.996063 6.4957047c0.81790924 0.62470245 1.5676651 1.2806473 2.2322235 1.9756317c0.3322754 0.34749603 0.6432495 0.70475006 0.9308014 1.0727386c0.14377594 0.18399048 0.2816925 0.37067413 0.41348267 0.5601654l0.10410309 0.15440369" fill-rule="evenodd"/><path fill="#000000" stroke="#000000" stroke-width="1.0" stroke-linecap="butt" d="m110.970024 123.00225l2.9184036 3.847786l0.23768616 -4.8234863z" fill-rule="evenodd"/><path fill="#999999" d="m0 128.2336l12.188976 0l0 29.102356l-12.188976 0z" fill-rule="evenodd"/><path stroke="#000000" stroke-width="1.0" stroke-linejoin="round" stroke-linecap="butt" d="m0 128.2336l12.188976 0l0 29.102356l-12.188976 0z" fill-rule="evenodd"/><path fill="#999999" d="m35.92126 128.2336l12.188976 0l0 29.102356l-12.188976 0z" fill-rule="evenodd"/><path stroke="#000000" stroke-width="1.0" stroke-linejoin="round" stroke-linecap="butt" d="m35.92126 128.2336l12.188976 0l0 29.102356l-12.188976 0z" fill-rule="evenodd"/><path fill="#999999" d="m90.72441 128.2336l12.188972 0l0 29.102356l-12.188972 0z" fill-rule="evenodd"/><path stroke="#000000" stroke-width="1.0" stroke-linejoin="round" stroke-linecap="butt" d="m90.72441 128.2336l12.188972 0l0 29.102356l-12.188972 0z" fill-rule="evenodd"/><path fill="#999999" d="m125.41207 128.2336l12.188972 0l0 29.102356l-12.188972 0z" fill-rule="evenodd"/><path stroke="#000000" stroke-width="1.0" stroke-linejoin="round" stroke-linecap="butt" d="m125.41207 128.2336l12.188972 0l0 29.102356l-12.188972 0z" fill-rule="evenodd"/><path fill="#999999" d="m41.29134 67.17585l12.188976 0l0 29.102364l-12.188976 0z" fill-rule="evenodd"/><path stroke="#000000" stroke-width="1.0" stroke-linejoin="round" stroke-linecap="butt" d="m41.29134 67.17585l12.188976 0l0 29.102364l-12.188976 0z" fill-rule="evenodd"/><path fill="#999999" d="m73.32809 67.17585l12.188972 0l0 29.102364l-12.188972 0z" fill-rule="evenodd"/><path stroke="#000000" stroke-width="1.0" stroke-linejoin="round" stroke-linecap="butt" d="m73.32809 67.17585l12.188972 0l0 29.102364l-12.188972 0z" fill-rule="evenodd"/><path fill="#000000" fill-opacity="0.0" d="m137.9469 29.102362c0 9.817522 21.46457 14.725599 42.929123 19.635046c21.46457 4.9094505 42.92914 9.820274 42.92914 19.640545" fill-rule="evenodd"/><path stroke="#000000" stroke-width="1.0" stroke-linejoin="round" stroke-linecap="butt" d="m137.94688 29.102362c0 9.817526 21.46457 14.725599 42.92914 19.63505c10.732285 2.4547234 21.46457 4.90979 29.513779 7.978714c4.0246124 1.5344582 7.3784485 3.2223778 9.726135 5.140457c0.2934723 0.23976135 0.5711975 0.48311234 0.83255005 0.730217c0.06535339 0.061775208 0.12968445 0.12378311 0.19296265 0.18602753l0.1544342 0.1550293" fill-rule="evenodd"/><path fill="#000000" stroke="#000000" stroke-width="1.0" stroke-linecap="butt" d="m219.79553 63.618633l3.3982391 3.4314003l-0.39753723 -4.81295z" fill-rule="evenodd"/><path fill="#c9daf8" d="m160.09973 129.43045l41.29135 0l0 29.102356l-41.29135 0z" fill-rule="evenodd"/><path stroke="#000000" stroke-width="1.0" stroke-linejoin="round" stroke-linecap="butt" d="m160.09973 129.43045l41.29135 0l0 29.102356l-41.29135 0z" fill-rule="evenodd"/><path fill="#000000" d="m184.83879 140.8235l-1.625 0.125q-0.21875 -0.96875 -0.625 -1.40625q-0.65625 -0.703125 -1.640625 -0.703125q-0.78125 0 -1.375 0.4375q-0.765625 0.5625 -1.21875 1.65625q-0.453125 1.078125 -0.46875 3.078125q0.59375 -0.890625 1.453125 -1.328125q0.859375 -0.4375 1.796875 -0.4375q1.640625 0 2.78125 1.203125q1.15625 1.203125 1.15625 3.109375q0 1.265625 -0.546875 2.34375q-0.53125 1.078125 -1.484375 1.65625q-0.9375 0.578125 -2.140625 0.578125q-2.0625 0 -3.359375 -1.5q-1.28125 -1.515625 -1.28125 -4.984375q0 -3.875 1.421875 -5.625q1.25 -1.53125 3.375 -1.53125q1.5625 0 2.5625 0.890625q1.015625 0.875 1.21875 2.4375zm-6.6875 5.75q0 0.84375 0.359375 1.625q0.359375 0.765625 1.0 1.171875q0.640625 0.40625 1.359375 0.40625q1.03125 0 1.78125 -0.828125q0.75 -0.84375 0.75 -2.28125q0 -1.390625 -0.734375 -2.1875q-0.734375 -0.796875 -1.859375 -0.796875q-1.109375 0 -1.890625 0.796875q-0.765625 0.796875 -0.765625 2.09375z" fill-rule="nonzero"/><path fill="#c9daf8" d="m250.8084 129.43045l44.12599 0l0 29.102356l-44.12599 0z" fill-rule="evenodd"/><path stroke="#000000" stroke-width="1.0" stroke-linejoin="round" stroke-linecap="butt" d="m250.8084 129.43045l44.12599 0l0 29.102356l-44.12599 0z" fill-rule="evenodd"/><path fill="#000000" d="m269.4488 150.90163l-1.640625 0l0 -10.453125q-0.59375 0.5625 -1.5625 1.140625q-0.953125 0.5625 -1.71875 0.84375l0 -1.59375q1.375 -0.640625 2.40625 -1.5625q1.03125 -0.921875 1.453125 -1.78125l1.0625 0l0 13.40625zm4.3132324 -11.609375l0 -1.578125l8.640625 0l0 1.28125q-1.28125 1.359375 -2.53125 3.609375q-1.25 2.25 -1.9375 4.625q-0.484375 1.671875 -0.625 3.671875l-1.6875 0q0.03125 -1.578125 0.625 -3.8125q0.59375 -2.234375 1.6875 -4.296875q1.109375 -2.078125 2.359375 -3.5l-6.53125 0z" fill-rule="nonzero"/><path fill="#c9daf8" d="m201.39108 68.3727l44.850388 0l0 29.102364l-44.850388 0z" fill-rule="evenodd"/><path stroke="#000000" stroke-width="1.0" stroke-linejoin="round" stroke-linecap="butt" d="m201.39108 68.3727l44.850388 0l0 29.102364l-44.850388 0z" fill-rule="evenodd"/><path fill="#000000" d="m214.2218 86.31263l1.640625 -0.21875q0.28125 1.40625 0.953125 2.015625q0.6875 0.609375 1.65625 0.609375q1.15625 0 1.953125 -0.796875q0.796875 -0.796875 0.796875 -1.984375q0 -1.125 -0.734375 -1.859375q-0.734375 -0.734375 -1.875 -0.734375q-0.46875 0 -1.15625 0.171875l0.1875 -1.4375q0.15625 0.015625 0.265625 0.015625q1.046875 0 1.875 -0.546875q0.84375 -0.546875 0.84375 -1.671875q0 -0.90625 -0.609375 -1.5q-0.609375 -0.59375 -1.578125 -0.59375q-0.953125 0 -1.59375 0.609375q-0.640625 0.59375 -0.8125 1.796875l-1.640625 -0.296875q0.296875 -1.640625 1.359375 -2.546875q1.0625 -0.90625 2.65625 -0.90625q1.09375 0 2.0 0.46875q0.921875 0.46875 1.40625 1.28125q0.5 0.8125 0.5 1.71875q0 0.859375 -0.46875 1.578125q-0.46875 0.703125 -1.375 1.125q1.1875 0.28125 1.84375 1.140625q0.65625 0.859375 0.65625 2.15625q0 1.734375 -1.28125 2.953125q-1.265625 1.21875 -3.21875 1.21875q-1.765625 0 -2.921875 -1.046875q-1.15625 -1.046875 -1.328125 -2.71875zm16.547592 3.53125l-1.640625 0l0 -10.453125q-0.59375 0.5625 -1.5625 1.140625q-0.953125 0.5625 -1.71875 0.84375l0 -1.59375q1.375 -0.640625 2.40625 -1.5625q1.03125 -0.921875 1.453125 -1.78125l1.0625 0l0 13.40625z" fill-rule="nonzero"/><path fill="#000000" fill-opacity="0.0" d="m207.48557 97.461945c0 7.9921265 -6.6850433 11.98819 -13.370087 15.984253c-6.685028 3.9960632 -13.370071 7.9921265 -13.370071 15.984253" fill-rule="evenodd"/><path stroke="#000000" stroke-width="1.0" stroke-linejoin="round" stroke-linecap="butt" d="m207.48557 97.461945c0 7.9921265 -6.6850433 11.98819 -13.370087 15.984253c-3.342514 1.9980316 -6.685028 3.9960632 -9.191925 6.493599c-0.62672424 0.624382 -1.2012177 1.2799911 -1.7104187 1.974617c-0.2546234 0.34731293 -0.49290466 0.70438385 -0.7132416 1.0721893c-0.1101532 0.18389893 -0.21583557 0.3704834 -0.31681824 0.5598755l-0.02696228 0.05216217" fill-rule="evenodd"/><path fill="#000000" stroke="#000000" stroke-width="1.0" stroke-linecap="butt" d="m180.55067 123.2103l0.53845215 4.799225l2.672409 -4.0225296z" fill-rule="evenodd"/><path fill="#000000" fill-opacity="0.0" d="m242.80077 97.47507c0 7.9887695 7.519684 11.981476 15.039383 15.977539c7.519684 3.9960632 15.039368 7.9954834 15.039368 15.990967" fill-rule="evenodd"/><path stroke="#000000" stroke-width="1.0" stroke-linejoin="round" stroke-linecap="butt" d="m242.80077 97.47507c0 7.9887695 7.519684 11.981468 15.039383 15.977531c3.7598267 1.9980316 7.519684 3.99691 10.339569 6.4957047c0.70495605 0.62470245 1.3511963 1.2806473 1.9239807 1.9756317c0.28640747 0.34750366 0.55441284 0.7047577 0.8022766 1.0727463c0.12390137 0.18399048 0.24276733 0.37067413 0.35635376 0.5601578l0.054504395 0.09379578" fill-rule="evenodd"/><path fill="#000000" stroke="#000000" stroke-width="1.0" stroke-linecap="butt" d="m269.72214 124.08082l2.7766418 3.9513016l0.41281128 -4.8116684z" fill-rule="evenodd"/><path fill="#999999" d="m160.09973 129.43045l12.18898 0l0 29.102356l-12.18898 0z" fill-rule="evenodd"/><path stroke="#000000" stroke-width="1.0" stroke-linejoin="round" stroke-linecap="butt" d="m160.09973 129.43045l12.18898 0l0 29.102356l-12.18898 0z" fill-rule="evenodd"/><path fill="#999999" d="m196.021 129.43045l12.18898 0l0 29.102356l-12.18898 0z" fill-rule="evenodd"/><path stroke="#000000" stroke-width="1.0" stroke-linejoin="round" stroke-linecap="butt" d="m196.021 129.43045l12.18898 0l0 29.102356l-12.18898 0z" fill-rule="evenodd"/><path fill="#999999" d="m250.82414 129.43045l12.18898 0l0 29.102356l-12.18898 0z" fill-rule="evenodd"/><path stroke="#000000" stroke-width="1.0" stroke-linejoin="round" stroke-linecap="butt" d="m250.82414 129.43045l12.18898 0l0 29.102356l-12.18898 0z" fill-rule="evenodd"/><path fill="#999999" d="m285.5118 129.43045l12.188965 0l0 29.102356l-12.188965 0z" fill-rule="evenodd"/><path stroke="#000000" stroke-width="1.0" stroke-linejoin="round" stroke-linecap="butt" d="m285.5118 129.43045l12.188965 0l0 29.102356l-12.188965 0z" fill-rule="evenodd"/><path fill="#999999" d="m201.39108 68.3727l12.188965 0l0 29.102364l-12.188965 0z" fill-rule="evenodd"/><path stroke="#000000" stroke-width="1.0" stroke-linejoin="round" stroke-linecap="butt" d="m201.39108 68.3727l12.188965 0l0 29.102364l-12.188965 0z" fill-rule="evenodd"/><path fill="#999999" d="m236.1866 68.3727l13.228348 0l0 29.102364l-13.228348 0z" fill-rule="evenodd"/><path stroke="#000000" stroke-width="1.0" stroke-linejoin="round" stroke-linecap="butt" d="m236.1866 68.3727l13.228348 0l0 29.102364l-13.228348 0z" fill-rule="evenodd"/></g></svg>