<svg version="1.1" viewBox="0.0 0.0 380.0 100.0" fill="none" stroke="none" stroke-linecap="square" stroke-miterlimit="10" xmlns:xlink="http://www.w3.org/1999/xlink" xmlns="http://www.w3.org/2000/svg"><clipPath id="p.0"><path d="m0 0l380.0 0l0 100.0l-380.0 0l0 -100.0z" clip-rule="nonzero"/></clipPath><g clip-path="url(#p.0)"><path fill="#000000" fill-opacity="0.0" d="m0 0l380.0 0l0 100.0l-380.0 0z" fill-rule="evenodd"/><path fill="#cfe2f3" d="m-0.001312336 1.4265091l41.29134 0l0 29.102362l-41.29134 0z" fill-rule="evenodd"/><path stroke="#000000" stroke-width="1.0" stroke-linejoin="round" stroke-linecap="butt" d="m-0.001312336 1.4265091l41.29134 0l0 29.102362l-41.29134 0z" fill-rule="evenodd"/><path fill="#000000" d="m22.409622 22.89769l-1.640625 0l0 -10.453126q-0.59375 0.5625 -1.5625 1.140625q-0.953125 0.5625 -1.71875 0.84375l0 -1.59375q1.375 -0.640625 2.40625 -1.5625q1.03125 -0.921875 1.453125 -1.78125l1.0625 0l0 13.406251z" fill-rule="nonzero"/><path fill="#b7b7b7" d="m29.098425 1.4265091l12.188978 0l0 29.102362l-12.188978 0z" fill-rule="evenodd"/><path stroke="#000000" stroke-width="1.0" stroke-linejoin="round" stroke-linecap="butt" d="m29.098425 1.4265091l12.188978 0l0 29.102362l-12.188978 0z" fill-rule="evenodd"/><path fill="#c9daf8" d="m78.44357 0.71784776l41.291336 0l0 29.102362l-41.291336 0z" fill-rule="evenodd"/><path stroke="#000000" stroke-width="1.0" stroke-linejoin="round" stroke-linecap="butt" d="m78.44357 0.71784776l41.291336 0l0 29.102362l-41.291336 0z" fill-rule="evenodd"/><path fill="#000000" d="m103.29201 20.610903l0 1.578125l-8.828125 0q-0.015625 -0.59375 0.1875 -1.140625q0.34375 -0.90625 1.078125 -1.78125q0.75 -0.875 2.15625 -2.015625q2.171875 -1.78125 2.9375 -2.828125q0.765625 -1.046875 0.765625 -1.96875q0 -0.984375 -0.703125 -1.640625q-0.6875 -0.671875 -1.8125 -0.671875q-1.1875 0 -1.90625 0.71875q-0.703125 0.703125 -0.703125 1.953125l-1.6875 -0.171875q0.171875 -1.890625 1.296875 -2.875q1.140625 -0.984375 3.03125 -0.984375q1.921875 0 3.046875 1.0625q1.125 1.0625 1.125 2.640625q0 0.796875 -0.328125 1.578125q-0.328125 0.78125 -1.09375 1.640625q-0.75 0.84375 -2.53125 2.34375q-1.46875 1.234375 -1.890625 1.6875q-0.421875 0.4375 -0.6875 0.875l6.546875 0z" fill-rule="nonzero"/><path fill="#999999" d="m107.53018 0.71784776l12.18898 0l0 29.102362l-12.18898 0z" fill-rule="evenodd"/><path stroke="#000000" stroke-width="1.0" stroke-linejoin="round" stroke-linecap="butt" d="m107.53018 0.71784776l12.18898 0l0 29.102362l-12.18898 0z" fill-rule="evenodd"/><path fill="#c9daf8" d="m163.45538 0.80446196l41.291336 0l0 29.102362l-41.291336 0z" fill-rule="evenodd"/><path stroke="#000000" stroke-width="1.0" stroke-linejoin="round" stroke-linecap="butt" d="m163.45538 0.80446196l41.291336 0l0 29.102362l-41.291336 0z" fill-rule="evenodd"/><path fill="#000000" d="m179.69444 18.744392l1.640625 -0.21875q0.28125 1.40625 0.953125 2.015625q0.6875 0.609375 1.65625 0.609375q1.15625 0 1.953125 -0.796875q0.796875 -0.796875 0.796875 -1.984375q0 -1.125 -0.734375 -1.859375q-0.734375 -0.73437595 -1.875 -0.73437595q-0.46875 0 -1.15625 0.171875l0.1875 -1.4375q0.15625 0.015625 0.265625 0.015625q1.046875 0 1.875 -0.546875q0.84375 -0.546875 0.84375 -1.671875q0 -0.90625 -0.609375 -1.5q-0.609375 -0.59375 -1.578125 -0.59375q-0.953125 0 -1.59375 0.609375q-0.640625 0.59375 -0.8125 1.796875l-1.640625 -0.296875q0.296875 -1.640625 1.359375 -2.546875q1.0625 -0.90625 2.65625 -0.90625q1.09375 0 2.0 0.46875q0.921875 0.46875 1.40625 1.28125q0.5 0.8125 0.5 1.71875q0 0.859375 -0.46875 1.578125q-0.46875 0.703125 -1.375 1.125q1.1875 0.28125 1.84375 1.140626q0.65625 0.859375 0.65625 2.15625q0 1.734375 -1.28125 2.953125q-1.265625 1.21875 -3.21875 1.21875q-1.765625 0 -2.921875 -1.046875q-1.15625 -1.046875 -1.328125 -2.71875z" fill-rule="nonzero"/><path fill="#999999" d="m192.53937 0.80446196l12.18898 0l0 29.102362l-12.18898 0z" fill-rule="evenodd"/><path stroke="#000000" stroke-width="1.0" stroke-linejoin="round" stroke-linecap="butt" d="m192.53937 0.80446196l12.18898 0l0 29.102362l-12.18898 0z" fill-rule="evenodd"/><path fill="#c9daf8" d="m249.36745 -0.001312336l41.291336 0l0 29.102362l-41.291336 0z" fill-rule="evenodd"/><path stroke="#000000" stroke-width="1.0" stroke-linejoin="round" stroke-linecap="butt" d="m249.36745 -0.001312336l41.291336 0l0 29.102362l-41.291336 0z" fill-rule="evenodd"/><path fill="#000000" d="m270.8565 21.469868l0 -3.203125l-5.796875 0l0 -1.5l6.09375 -8.65625l1.34375 0l0 8.65625l1.796875 0l0 1.5l-1.796875 0l0 3.203125l-1.640625 0zm0 -4.703125l0 -6.015625l-4.1875 6.015625l4.1875 0z" fill-rule="nonzero"/><path fill="#999999" d="m278.45407 -0.001312336l12.188965 0l0 29.102362l-12.188965 0z" fill-rule="evenodd"/><path stroke="#000000" stroke-width="1.0" stroke-linejoin="round" stroke-linecap="butt" d="m278.45407 -0.001312336l12.188965 0l0 29.102362l-12.188965 0z" fill-rule="evenodd"/><path fill="#000000" fill-opacity="0.0" d="m41.287403 15.977691c9.288364 0 13.931061 -0.18110275 18.576729 -0.3622055c4.645672 -0.1811018 9.294315 -0.36220455 18.588627 -0.36220455" fill-rule="evenodd"/><path stroke="#000000" stroke-width="1.0" stroke-linejoin="round" stroke-linecap="butt" d="m41.287403 15.977691c9.288364 0 13.931061 -0.18110275 18.576729 -0.3622055c2.322834 -0.09055042 4.646412 -0.1811018 7.5510674 -0.24901581c1.4523315 -0.033956528 3.0499344 -0.062253952 4.865341 -0.08206177l0.17228699 -0.0016222" fill-rule="evenodd"/><path fill="#000000" stroke="#000000" stroke-width="1.0" stroke-linecap="butt" d="m72.46095 16.934498l4.529915 -1.6740284l-4.546158 -1.6293964z" fill-rule="evenodd"/><path fill="#000000" fill-opacity="0.0" d="m119.71916 15.269029c10.934158 0 16.399826 0.023622513 21.868332 0.047244072c5.468506 0.023622513 10.93985 0.047244072 21.8797 0.047244072" fill-rule="evenodd"/><path stroke="#000000" stroke-width="1.0" stroke-linejoin="round" stroke-linecap="butt" d="m119.71916 15.269029c10.934174 0 16.399826 0.023622513 21.868317 0.047244072c2.734253 0.011811256 5.469223 0.023622513 8.888107 0.03248024c1.7094421 0.004429817 3.589859 0.008120537 5.726654 0.0107040405l1.2649536 7.0762634E-4" fill-rule="evenodd"/><path fill="#000000" stroke="#000000" stroke-width="1.0" stroke-linecap="butt" d="m157.46626 17.011896l4.539032 -1.6491957l-4.5371857 -1.6542683z" fill-rule="evenodd"/><path fill="#000000" fill-opacity="0.0" d="m204.72835 15.355643c11.159714 0 16.740677 -0.20472431 22.319427 -0.40944862c5.5787354 -0.20472527 11.155243 -0.40944958 22.310486 -0.40944958" fill-rule="evenodd"/><path stroke="#000000" stroke-width="1.0" stroke-linejoin="round" stroke-linecap="butt" d="m204.72835 15.355643c11.159714 0 16.740692 -0.20472431 22.319427 -0.40944862c2.7893677 -0.10236263 5.578186 -0.20472527 9.064056 -0.28149605c1.7429352 -0.038386345 3.6601562 -0.07037449 5.838806 -0.09276581l1.4076691 -0.012489319" fill-rule="evenodd"/><path fill="#000000" stroke="#000000" stroke-width="1.0" stroke-linecap="butt" d="m243.36456 16.211164l4.5318146 -1.668889l-4.5443115 -1.634553z" fill-rule="evenodd"/><path fill="#c9daf8" d="m334.35303 -0.001312336l41.29132 0l0 29.102362l-41.29132 0z" fill-rule="evenodd"/><path stroke="#000000" stroke-width="1.0" stroke-linejoin="round" stroke-linecap="butt" d="m334.35303 -0.001312336l41.29132 0l0 29.102362l-41.29132 0z" fill-rule="evenodd"/><path fill="#000000" d="m350.59207 17.969868l1.71875 -0.140625q0.1875 1.25 0.875 1.890625q0.703125 0.625 1.6875 0.625q1.1875 0 2.0 -0.890625q0.828125 -0.890625 0.828125 -2.359375q0 -1.40625 -0.796875 -2.21875q-0.78125 -0.8125 -2.0625 -0.8125q-0.78125 0 -1.421875 0.359375q-0.640625 0.359375 -1.0 0.9375l-1.546875 -0.203125l1.296875 -6.859375l6.640625 0l0 1.5625l-5.328125 0l-0.71875 3.59375q1.203125 -0.84375 2.515625 -0.84375q1.75 0 2.953125 1.21875q1.203125 1.203125 1.203125 3.109375q0 1.8125 -1.046875 3.140625q-1.296875 1.625 -3.515625 1.625q-1.8125 0 -2.96875 -1.015625q-1.15625 -1.03125 -1.3125 -2.71875z" fill-rule="nonzero"/><path fill="#999999" d="m363.7362 0.080052495l12.188995 0l0 29.102362l-12.188995 0z" fill-rule="evenodd"/><path stroke="#000000" stroke-width="1.0" stroke-linejoin="round" stroke-linecap="butt" d="m363.7362 0.080052495l12.188995 0l0 29.102362l-12.188995 0z" fill-rule="evenodd"/><path fill="#000000" fill-opacity="0.0" d="m290.64304 14.549869c10.927399 0 16.390198 0.015748024 21.854767 0.031496048c5.464569 0.015748024 10.930908 0.031496048 21.861786 0.031496048" fill-rule="evenodd"/><path stroke="#000000" stroke-width="1.0" stroke-linejoin="round" stroke-linecap="butt" d="m290.64304 14.549869c10.927399 0 16.390198 0.015748024 21.854767 0.031496048c2.7322998 0.007874489 5.4649963 0.015748024 8.8810425 0.021654129c1.7080078 0.0029525757 3.5868225 0.0054130554 5.7218018 0.0071353912l1.2589417 4.6920776E-4" fill-rule="evenodd"/><path fill="#000000" stroke="#000000" stroke-width="1.0" stroke-linecap="butt" d="m328.35898 16.262356l4.5386963 -1.6500397l-4.5374756 -1.6534252z" fill-rule="evenodd"/></g></svg>