<?xml version="1.0" standalone="no"?>
<!DOCTYPE svg PUBLIC "-//W3C//DTD SVG 20010904//EN"
 "http://www.w3.org/TR/2001/REC-SVG-20010904/DTD/svg10.dtd">
<svg version="1.0" xmlns="http://www.w3.org/2000/svg"
 width="500.000000pt" height="500.000000pt" viewBox="0 0 500.000000 500.000000"
 preserveAspectRatio="xMidYMid meet">
<metadata>
Created by potrace 1.14, written by Peter Selinger 2001-2017
</metadata>
<g transform="translate(0.000000,500.000000) scale(0.100000,-0.100000)"
fill="#000000" stroke="none">
<path d="M2740 4363 c0 -4 -17 -8 -38 -8 -38 0 -72 -5 -157 -24 -27 -6 -66
-14 -85 -16 -81 -10 -80 -10 -322 -123 -32 -15 -58 -29 -58 -32 0 -3 -10 -7
-22 -7 -13 -1 -24 -7 -26 -13 -2 -5 -11 -10 -20 -10 -22 0 -122 -58 -122 -70
0 -6 -3 -9 -7 -8 -18 5 -53 -15 -55 -30 0 -9 -2 -22 -2 -29 -1 -7 -10 -19 -21
-27 -20 -15 -12 -21 23 -17 6 1 12 -3 12 -9 0 -5 -7 -10 -16 -10 -9 0 -14 -7
-12 -17 3 -14 13 -18 48 -18 50 0 65 -11 44 -32 -8 -8 -14 -21 -14 -29 0 -8
-4 -14 -9 -14 -5 0 -12 -9 -16 -19 -3 -11 -20 -37 -37 -58 -40 -49 -78 -132
-82 -178 -2 -21 -7 -40 -12 -44 -5 -3 -10 -13 -12 -21 -5 -22 -53 -90 -88
-125 -44 -43 -64 -88 -69 -150 -4 -52 -2 -56 30 -81 26 -20 33 -32 33 -57 -1
-36 -16 -70 -47 -107 -115 -133 -139 -160 -146 -160 -9 0 -65 -57 -65 -67 0
-5 -6 -15 -12 -21 -7 -7 -13 -16 -14 -20 0 -4 -7 -20 -15 -37 -10 -23 -14 -88
-15 -267 -1 -131 1 -238 4 -238 4 0 8 -12 9 -28 1 -28 21 -126 31 -152 3 -8 6
-17 7 -20 8 -31 29 -87 36 -94 5 -6 9 -20 9 -31 0 -12 3 -25 7 -29 5 -4 8 -11
8 -14 0 -4 17 -32 38 -63 38 -58 37 -58 147 -86 63 -16 251 -21 290 -8 62 21
83 2 127 -115 15 -42 16 -53 4 -45 -13 7 -62 -16 -84 -40 -50 -55 -94 -188
-112 -335 -3 -30 -8 -68 -10 -83 -2 -16 -15 -47 -30 -68 -41 -63 -72 -121 -79
-153 -4 -16 -28 -60 -54 -99 -26 -38 -62 -92 -79 -119 -18 -26 -33 -53 -33
-59 0 -6 -6 -17 -14 -24 -13 -13 -61 -193 -70 -265 -6 -44 -18 -164 -21 -207
l-2 -33 1729 0 1729 0 -6 21 c-4 12 -8 27 -9 33 -1 6 -5 16 -8 22 -4 5 -9 28
-12 50 -3 21 -8 57 -12 79 -4 22 -7 47 -6 55 0 8 -6 36 -13 63 -8 26 -11 47
-8 47 3 0 1 6 -5 12 -6 7 -10 15 -10 18 2 10 -25 86 -49 138 -26 56 -24 64 19
101 35 29 89 106 81 115 -4 3 -2 6 4 6 5 0 10 6 10 13 0 6 12 57 27 111 14 55
24 102 21 104 -3 3 0 11 6 19 6 7 9 13 7 13 -3 0 -1 21 4 48 22 119 27 162 19
162 -4 0 -7 10 -8 21 -1 12 -9 37 -19 57 -9 19 -17 40 -18 46 -4 20 -50 111
-58 114 -4 2 -8 9 -8 16 0 15 -79 140 -91 144 -5 2 -9 8 -9 13 0 6 -9 19 -20
31 -10 12 -17 25 -14 30 3 4 -2 8 -10 8 -9 0 -15 4 -14 8 2 5 -14 28 -34 52
-21 23 -38 39 -38 35 0 -5 -9 2 -20 15 -21 24 -116 63 -131 54 -5 -3 -9 -1 -9
4 0 10 -30 10 -46 -1 -6 -3 -14 -3 -18 1 -4 4 -22 8 -39 9 -61 3 -87 7 -87 15
0 4 -7 8 -15 8 -15 0 -75 113 -75 141 0 20 -50 88 -70 94 -9 3 -23 18 -31 33
-8 15 -22 35 -33 45 -10 9 -15 17 -11 17 15 0 -49 53 -81 66 -18 8 -54 16 -81
19 -80 9 -145 15 -208 21 -77 6 -87 8 -102 17 -23 14 -14 26 40 57 28 17 59
35 67 40 8 5 36 17 62 27 27 10 48 22 48 26 0 5 4 6 9 3 4 -3 19 6 31 19 13
14 28 25 32 25 5 0 15 6 21 13 20 21 109 197 100 197 -4 0 -3 4 3 8 11 8 47
92 39 92 -3 0 2 12 12 26 19 29 24 74 8 74 -6 0 -6 3 1 8 6 4 12 32 13 62 6
102 8 125 14 140 12 32 24 110 18 114 -3 3 -8 35 -9 73 -1 37 -6 79 -11 93 -9
25 -24 78 -25 93 -1 4 -7 11 -14 16 -11 6 -10 10 4 15 14 5 15 9 6 15 -12 7
-20 38 -21 85 -1 13 -6 16 -18 11 -14 -5 -15 -3 -7 5 16 17 6 47 -18 53 -16 5
-19 11 -14 30 4 17 1 27 -9 31 -8 3 -12 12 -9 21 7 18 -12 21 -20 3 -3 -7 -4
2 -2 20 3 24 0 32 -11 32 -11 0 -14 6 -10 21 4 16 2 19 -10 15 -12 -5 -14 -1
-9 19 6 24 5 25 -14 15 -16 -9 -20 -8 -21 5 -3 30 -28 85 -39 85 -11 0 -50 36
-50 46 0 5 -18 20 -40 34 -22 14 -40 28 -40 32 0 5 -11 8 -24 8 -13 0 -34 11
-47 25 -13 13 -30 25 -36 25 -7 0 -13 4 -13 9 0 9 -93 52 -107 50 -4 -1 -10 0
-13 1 -3 1 -18 3 -35 5 -16 1 -48 11 -70 21 -22 10 -53 19 -70 22 -16 2 -32 7
-35 10 -3 4 -18 8 -35 9 -16 1 -57 4 -90 8 -87 10 -266 13 -296 5 -14 -4 -33
-3 -42 2 -10 5 -17 5 -17 1z"/>
</g>
</svg>
